<svg width="91" height="13" viewBox="0 0 91 13" fill="none" xmlns="http://www.w3.org/2000/svg">
<path d="M6.85938 7.35156H2.35938V12H0.015625V0.625H7.42188V2.52344H2.35938V5.46094H6.85938V7.35156Z" fill="#0F1138"/>
<path d="M11.0156 12H8.75V3.54688H11.0156V12ZM8.61719 1.35938C8.61719 1.02083 8.72917 0.742188 8.95312 0.523438C9.18229 0.304688 9.49219 0.195312 9.88281 0.195312C10.2682 0.195312 10.5755 0.304688 10.8047 0.523438C11.0339 0.742188 11.1484 1.02083 11.1484 1.35938C11.1484 1.70312 11.0312 1.98438 10.7969 2.20312C10.5677 2.42188 10.263 2.53125 9.88281 2.53125C9.5026 2.53125 9.19531 2.42188 8.96094 2.20312C8.73177 1.98438 8.61719 1.70312 8.61719 1.35938Z" fill="#0F1138"/>
<path d="M14.9609 3.54688L15.0312 4.52344C15.6354 3.76823 16.4453 3.39062 17.4609 3.39062C18.3568 3.39062 19.0234 3.65365 19.4609 4.17969C19.8984 4.70573 20.1224 5.49219 20.1328 6.53906V12H17.875V6.59375C17.875 6.11458 17.7708 5.76823 17.5625 5.55469C17.3542 5.33594 17.0078 5.22656 16.5234 5.22656C15.888 5.22656 15.4115 5.4974 15.0938 6.03906V12H12.8359V3.54688H14.9609Z" fill="#0F1138"/>
<path d="M21.5 7.71094C21.5 6.39323 21.7943 5.34375 22.3828 4.5625C22.9766 3.78125 23.7865 3.39062 24.8125 3.39062C25.6354 3.39062 26.3151 3.69792 26.8516 4.3125V0H29.1172V12H27.0781L26.9688 11.1016C26.4062 11.8047 25.6823 12.1562 24.7969 12.1562C23.8021 12.1562 23.0026 11.7656 22.3984 10.9844C21.7995 10.1979 21.5 9.10677 21.5 7.71094ZM23.7578 7.875C23.7578 8.66667 23.8958 9.27344 24.1719 9.69531C24.4479 10.1172 24.849 10.3281 25.375 10.3281C26.0729 10.3281 26.5651 10.0339 26.8516 9.44531V6.10938C26.5703 5.52083 26.0833 5.22656 25.3906 5.22656C24.3021 5.22656 23.7578 6.10938 23.7578 7.875Z" fill="#0F1138"/>
<path d="M34.9375 5.75L37.3047 0.625H39.8672L36.1328 7.875V12H33.75V7.875L30.0156 0.625H32.5859L34.9375 5.75Z" fill="#0F1138"/>
<path d="M39.8906 7.69531C39.8906 6.85677 40.0521 6.10938 40.375 5.45312C40.6979 4.79688 41.1615 4.28906 41.7656 3.92969C42.375 3.57031 43.0807 3.39062 43.8828 3.39062C45.0234 3.39062 45.9531 3.73958 46.6719 4.4375C47.3958 5.13542 47.7995 6.08333 47.8828 7.28125L47.8984 7.85938C47.8984 9.15625 47.5365 10.1979 46.8125 10.9844C46.0885 11.7656 45.1172 12.1562 43.8984 12.1562C42.6797 12.1562 41.7057 11.7656 40.9766 10.9844C40.2526 10.2031 39.8906 9.14062 39.8906 7.79688V7.69531ZM42.1484 7.85938C42.1484 8.66146 42.2995 9.27604 42.6016 9.70312C42.9036 10.125 43.3359 10.3359 43.8984 10.3359C44.4453 10.3359 44.8724 10.1276 45.1797 9.71094C45.487 9.28906 45.6406 8.61719 45.6406 7.69531C45.6406 6.90885 45.487 6.29948 45.1797 5.86719C44.8724 5.4349 44.4401 5.21875 43.8828 5.21875C43.3307 5.21875 42.9036 5.4349 42.6016 5.86719C42.2995 6.29427 42.1484 6.95833 42.1484 7.85938Z" fill="#0F1138"/>
<path d="M54.3516 11.1406C53.7943 11.8177 53.0234 12.1562 52.0391 12.1562C51.1328 12.1562 50.4401 11.8958 49.9609 11.375C49.487 10.8542 49.2448 10.0911 49.2344 9.08594V3.54688H51.4922V9.00781C51.4922 9.88802 51.8932 10.3281 52.6953 10.3281C53.4609 10.3281 53.987 10.0625 54.2734 9.53125V3.54688H56.5391V12H54.4141L54.3516 11.1406Z" fill="#0F1138"/>
<path d="M62.9922 5.66406C62.6849 5.6224 62.4141 5.60156 62.1797 5.60156C61.3255 5.60156 60.7656 5.89062 60.5 6.46875V12H58.2422V3.54688H60.375L60.4375 4.55469C60.8906 3.77865 61.5182 3.39062 62.3203 3.39062C62.5703 3.39062 62.8047 3.42448 63.0234 3.49219L62.9922 5.66406Z" fill="#0F1138"/>
<path d="M69.6016 0.625H71.9453V8.5C71.9453 9.22396 71.7839 9.86458 71.4609 10.4219C71.1432 10.974 70.6927 11.401 70.1094 11.7031C69.526 12.0052 68.8672 12.1562 68.1328 12.1562C66.9297 12.1562 65.9922 11.8516 65.3203 11.2422C64.6484 10.6276 64.3125 9.76042 64.3125 8.64062H66.6719C66.6719 9.19792 66.7891 9.60938 67.0234 9.875C67.2578 10.1406 67.6276 10.2734 68.1328 10.2734C68.5807 10.2734 68.9375 10.1198 69.2031 9.8125C69.4688 9.50521 69.6016 9.06771 69.6016 8.5V0.625Z" fill="#1A75E8"/>
<path d="M73.4531 7.69531C73.4531 6.85677 73.6146 6.10938 73.9375 5.45312C74.2604 4.79688 74.724 4.28906 75.3281 3.92969C75.9375 3.57031 76.6432 3.39062 77.4453 3.39062C78.5859 3.39062 79.5156 3.73958 80.2344 4.4375C80.9583 5.13542 81.362 6.08333 81.4453 7.28125L81.4609 7.85938C81.4609 9.15625 81.099 10.1979 80.375 10.9844C79.651 11.7656 78.6797 12.1562 77.4609 12.1562C76.2422 12.1562 75.2682 11.7656 74.5391 10.9844C73.8151 10.2031 73.4531 9.14062 73.4531 7.79688V7.69531ZM75.7109 7.85938C75.7109 8.66146 75.862 9.27604 76.1641 9.70312C76.4661 10.125 76.8984 10.3359 77.4609 10.3359C78.0078 10.3359 78.4349 10.1276 78.7422 9.71094C79.0495 9.28906 79.2031 8.61719 79.2031 7.69531C79.2031 6.90885 79.0495 6.29948 78.7422 5.86719C78.4349 5.4349 78.0026 5.21875 77.4453 5.21875C76.8932 5.21875 76.4661 5.4349 76.1641 5.86719C75.862 6.29427 75.7109 6.95833 75.7109 7.85938Z" fill="#1A75E8"/>
<path d="M90.4688 7.85156C90.4688 9.20573 90.1797 10.263 89.6016 11.0234C89.0234 11.7786 88.2161 12.1562 87.1797 12.1562C86.263 12.1562 85.5312 11.8047 84.9844 11.1016L84.8828 12H82.8516V0H85.1094V4.30469C85.6302 3.69531 86.3151 3.39062 87.1641 3.39062C88.1953 3.39062 89.0026 3.77083 89.5859 4.53125C90.1745 5.28646 90.4688 6.35156 90.4688 7.72656V7.85156ZM88.2109 7.6875C88.2109 6.83333 88.0755 6.21094 87.8047 5.82031C87.5339 5.42448 87.1302 5.22656 86.5938 5.22656C85.875 5.22656 85.3802 5.52083 85.1094 6.10938V9.44531C85.3854 10.0391 85.8854 10.3359 86.6094 10.3359C87.3385 10.3359 87.8177 9.97656 88.0469 9.25781C88.1562 8.91406 88.2109 8.39062 88.2109 7.6875Z" fill="#1A75E8"/>
</svg>
